<svg width="46" height="15" viewBox="0 0 46 15" fill="none" xmlns="http://www.w3.org/2000/svg">
<path d="M7.04379 4.91C6.33879 4.145 5.37879 3.8 4.34379 3.8C2.18379 3.8 0.713789 5.36 0.713789 7.49C0.713789 9.65 2.16879 11.18 4.34379 11.18C5.36379 11.18 6.32379 10.835 6.99879 10.055L6.12879 9.23C5.69379 9.83 5.10879 10.1 4.34379 10.1C2.91879 10.1 1.97379 8.93 1.97379 7.49C1.97379 6.05 2.76879 4.88 4.34379 4.88C5.04879 4.88 5.61879 5.135 6.11379 5.735L7.04379 4.91ZM14.3251 3.98H13.0501L10.9651 9.485H10.9351L8.76012 3.98H7.39512L10.3051 11.045L9.82512 12.365C9.57012 13.055 9.28512 13.52 8.52012 13.52C8.19012 13.52 7.93512 13.49 7.69512 13.4L7.54512 14.42C7.86012 14.57 8.26512 14.6 8.59512 14.6C10.0051 14.6 10.4701 13.79 10.9351 12.605L14.3251 3.98ZM21.8764 1.355C21.0964 0.439999 20.0914 0.11 18.9064 0.11C17.0464 0.11 15.2914 1.13 15.2914 3.17C15.2914 4.94 16.4314 5.6 17.9314 6.095C19.8214 6.725 20.7064 6.95 20.7064 8.255C20.7064 9.47 19.4764 10.1 18.3964 10.1C17.4814 10.1 16.5814 9.695 16.1314 8.915L15.0514 9.8C15.7714 10.865 17.0914 11.27 18.3214 11.27C20.2414 11.27 22.0564 10.28 22.0564 8.165C22.0564 6.08 20.5264 5.54 18.8764 5.015C17.1814 4.475 16.6414 4.04 16.6414 3.065C16.6414 1.805 17.7964 1.28 18.9064 1.28C19.6714 1.28 20.4214 1.58 20.8414 2.255L21.8764 1.355ZM29.8964 3.98H28.6214L26.5364 9.485H26.5064L24.3314 3.98H22.9664L25.8764 11.045L25.3964 12.365C25.1414 13.055 24.8564 13.52 24.0914 13.52C23.7614 13.52 23.5064 13.49 23.2664 13.4L23.1164 14.42C23.4314 14.57 23.8364 14.6 24.1664 14.6C25.5764 14.6 26.0414 13.79 26.5064 12.605L29.8964 3.98ZM31.1627 11H32.3327V7.58C32.3327 5.975 32.9927 4.88 34.5077 4.88C35.6027 4.88 36.1127 5.615 36.1127 6.785V11H37.2827V6.665C37.2827 4.97 36.4577 3.8 34.6127 3.8C33.4577 3.8 32.5877 4.445 32.2727 5.135H32.2427C32.2427 4.745 32.2127 4.355 32.2127 3.98H31.1027C31.1027 4.445 31.1627 5 31.1627 5.645V11ZM45.4227 4.91C44.7177 4.145 43.7577 3.8 42.7227 3.8C40.5627 3.8 39.0927 5.36 39.0927 7.49C39.0927 9.65 40.5477 11.18 42.7227 11.18C43.7427 11.18 44.7027 10.835 45.3777 10.055L44.5077 9.23C44.0727 9.83 43.4877 10.1 42.7227 10.1C41.2977 10.1 40.3527 8.93 40.3527 7.49C40.3527 6.05 41.1477 4.88 42.7227 4.88C43.4277 4.88 43.9977 5.135 44.4927 5.735L45.4227 4.91Z" fill="white"/>
</svg>
